<svg width="33" height="33" viewBox="0 0 33 33" fill="none" xmlns="http://www.w3.org/2000/svg">
<path d="M27.0179 13.5537C26.8712 11.6603 25.2712 10.167 23.3645 10.167H9.63121C7.72454 10.167 6.12454 11.6603 5.97788 13.5537L5.05788 25.5537C4.97788 26.567 5.33788 27.5803 6.01788 28.327C6.71121 29.0737 7.68454 29.5003 8.71121 29.5003H24.2845C25.2979 29.5003 26.2845 29.0737 26.9779 28.327C27.6712 27.5803 28.0179 26.567 27.9379 25.5537L27.0179 13.5537ZM25.5112 26.967C25.1912 27.3137 24.7645 27.5003 24.2845 27.5003H8.71121C8.24454 27.5003 7.80454 27.3137 7.48454 26.967C7.16454 26.6203 7.00454 26.1803 7.04454 25.7137L7.96454 13.7137C8.03121 12.847 8.76454 12.1803 9.63121 12.1803H23.3645C24.2312 12.1803 24.9645 12.8603 25.0312 13.7137L25.9512 25.7137C25.9912 26.1803 25.8312 26.6337 25.5112 26.967Z" fill="#0061E6"/>
<path d="M11.1641 8.16667C11.7107 8.16667 12.1641 7.71333 12.1641 7.16667C12.1641 6.24667 12.9107 5.5 13.8307 5.5H19.1641C20.0841 5.5 20.8307 6.24667 20.8307 7.16667C20.8307 7.71333 21.2841 8.16667 21.8307 8.16667C22.3774 8.16667 22.8307 7.71333 22.8307 7.16667C22.8307 5.14 21.1907 3.5 19.1641 3.5H13.8307C11.8041 3.5 10.1641 5.14 10.1641 7.16667C10.1641 7.71333 10.6174 8.16667 11.1641 8.16667Z" fill="#0061E6"/>
<path d="M19.8947 17.0334L15.2547 20.5134L13.2014 18.46C12.8147 18.0734 12.1747 18.0734 11.788 18.46C11.4014 18.8467 11.4014 19.4867 11.788 19.8734L14.4547 22.54C14.6547 22.74 14.908 22.8334 15.1614 22.8334C15.3747 22.8334 15.588 22.7667 15.7614 22.6334L21.0947 18.6334C21.5347 18.3 21.628 17.6734 21.2947 17.2334C20.9614 16.7934 20.3347 16.7 19.8947 17.0334Z" fill="#0061E6"/>
</svg>
